<svg width="1053" height="783" viewBox="0 0 1053 783" fill="none" xmlns="http://www.w3.org/2000/svg">
<mask id="mask0_61_6010" style="mask-type:alpha" maskUnits="userSpaceOnUse" x="435" y="260" width="180" height="180">
<rect x="435" y="260" width="180" height="180" fill="#D9D9D9"/>
</mask>
<g mask="url(#mask0_61_6010)">
<g filter="url(#filter0_d_61_6010)">
<path fill-rule="evenodd" clip-rule="evenodd" d="M-0.5 -0.5C350.5 -0.5 701.5 -0.5 1052.5 -0.5C1052.5 260.5 1052.5 521.5 1052.5 782.5C701.5 782.5 350.5 782.5 -0.5 782.5C-0.5 521.5 -0.5 260.5 -0.5 -0.5Z" fill="#0D4E63"/>
</g>
</g>
<path fill-rule="evenodd" clip-rule="evenodd" d="M521 268.062C524.018 267.897 527.018 268.064 530 268.562C549.471 280.134 569.138 291.468 589 302.562C591.167 304.062 593 305.895 594.5 308.062C595.481 333.816 595.148 359.483 593.5 385.062C589.263 388.598 584.763 391.764 580 394.562C564.234 403.282 548.568 412.282 533 421.562C529.282 423.86 525.282 424.527 521 423.562C502.164 412.309 483.164 401.309 464 390.562C460.833 388.729 458.333 386.229 456.5 383.062C455.833 358.062 455.833 333.062 456.5 308.062C457.546 306.472 458.713 304.972 460 303.562C480.428 291.688 500.762 279.855 521 268.062Z" fill="#B88855"/>
<path fill-rule="evenodd" clip-rule="evenodd" d="M509.499 361.5C519.986 362.494 530.653 362.828 541.499 362.5C541.499 358.5 541.499 354.5 541.499 350.5C533.166 350.5 524.832 350.5 516.499 350.5C515.522 347.713 515.189 344.713 515.499 341.5C526.935 341.044 538.268 341.544 549.499 343C550.649 351.755 550.815 360.588 549.999 369.5C549.249 370.126 548.415 370.626 547.499 371C533.832 371.667 520.166 371.667 506.499 371C503.59 369.594 501.59 367.428 500.499 364.5C499.54 352.55 499.206 340.55 499.499 328.5C500.949 325.215 503.282 322.715 506.499 321C520.828 320.5 535.162 320.333 549.499 320.5C549.499 323.5 549.499 326.5 549.499 329.5C536.162 329.333 522.828 329.5 509.499 330C508.17 340.598 508.17 351.098 509.499 361.5Z" fill="#0D4E63"/>
<path fill-rule="evenodd" clip-rule="evenodd" d="M499.5 328.5C499.207 340.55 499.541 352.55 500.5 364.5C499.883 364.389 499.383 364.056 499 363.5C498.174 351.659 498.341 339.993 499.5 328.5Z" fill="#B88855"/>
<path fill-rule="evenodd" clip-rule="evenodd" d="M516.5 350.5C524.833 350.5 533.167 350.5 541.5 350.5C541.5 354.5 541.5 358.5 541.5 362.5C530.654 362.828 519.987 362.494 509.5 361.5C519.833 361.5 530.167 361.5 540.5 361.5C540.5 358.167 540.5 354.833 540.5 351.5C532.316 351.826 524.316 351.492 516.5 350.5Z" fill="#B88855"/>
<defs>
<filter id="filter0_d_61_6010" x="-4.5" y="-0.5" width="1061" height="791" filterUnits="userSpaceOnUse" color-interpolation-filters="sRGB">
<feFlood flood-opacity="0" result="BackgroundImageFix"/>
<feColorMatrix in="SourceAlpha" type="matrix" values="0 0 0 0 0 0 0 0 0 0 0 0 0 0 0 0 0 0 127 0" result="hardAlpha"/>
<feOffset dy="4"/>
<feGaussianBlur stdDeviation="2"/>
<feComposite in2="hardAlpha" operator="out"/>
<feColorMatrix type="matrix" values="0 0 0 0 0 0 0 0 0 0 0 0 0 0 0 0 0 0 0.25 0"/>
<feBlend mode="normal" in2="BackgroundImageFix" result="effect1_dropShadow_61_6010"/>
<feBlend mode="normal" in="SourceGraphic" in2="effect1_dropShadow_61_6010" result="shape"/>
</filter>
</defs>
</svg>
