<svg width="1439" height="1071" viewBox="0 0 1439 1071" fill="none" xmlns="http://www.w3.org/2000/svg">
<g clip-path="url(#clip0_61_5955)">
<g filter="url(#filter0_d_61_5955)">
<path fill-rule="evenodd" clip-rule="evenodd" d="M-0.683594 -0.68335C478.983 -0.68335 958.65 -0.68335 1438.32 -0.68335C1438.32 355.992 1438.32 712.667 1438.32 1069.34C958.65 1069.34 478.983 1069.34 -0.683594 1069.34C-0.683594 712.667 -0.683594 355.992 -0.683594 -0.68335Z" fill="#0D4E63"/>
</g>
<path fill-rule="evenodd" clip-rule="evenodd" d="M711.3 365.558C715.424 365.332 719.524 365.561 723.599 366.241C750.208 382.055 777.084 397.544 804.227 412.705C807.188 414.755 809.693 417.259 811.743 420.221C813.084 455.415 812.629 490.491 810.377 525.447C804.586 530.279 798.437 534.606 791.928 538.429C770.383 550.346 748.974 562.645 727.699 575.327C722.618 578.467 717.152 579.379 711.3 578.06C685.559 562.682 659.595 547.65 633.406 532.963C629.078 530.458 625.661 527.042 623.156 522.714C622.245 488.549 622.245 454.385 623.156 420.221C624.586 418.048 626.181 415.998 627.939 414.071C655.856 397.845 683.643 381.674 711.3 365.558Z" fill="#B88855"/>
<path fill-rule="evenodd" clip-rule="evenodd" d="M696.269 494.016C710.6 495.374 725.177 495.83 739.999 495.382C739.999 489.916 739.999 484.45 739.999 478.983C728.612 478.983 717.223 478.983 705.835 478.983C704.5 475.175 704.045 471.075 704.468 466.684C720.097 466.061 735.584 466.744 750.932 468.734C752.503 480.698 752.73 492.769 751.615 504.948C750.59 505.804 749.45 506.487 748.199 506.998C729.522 507.91 710.846 507.91 692.169 506.998C688.194 505.077 685.461 502.117 683.97 498.115C682.659 481.785 682.203 465.386 682.603 448.919C684.585 444.43 687.773 441.013 692.169 438.67C711.751 437.986 731.339 437.758 750.932 437.986C750.932 442.086 750.932 446.186 750.932 450.285C732.706 450.057 714.484 450.285 696.269 450.969C694.453 465.452 694.453 479.801 696.269 494.016Z" fill="#0D4E63"/>
<path fill-rule="evenodd" clip-rule="evenodd" d="M682.602 448.919C682.202 465.386 682.658 481.785 683.969 498.115C683.126 497.964 682.443 497.509 681.919 496.749C680.79 480.567 681.019 464.625 682.602 448.919Z" fill="#B88855"/>
<path fill-rule="evenodd" clip-rule="evenodd" d="M705.834 478.983C717.221 478.983 728.61 478.983 739.998 478.983C739.998 484.45 739.998 489.916 739.998 495.382C725.176 495.83 710.599 495.374 696.268 494.016C710.388 494.016 724.511 494.016 738.631 494.016C738.631 489.461 738.631 484.905 738.631 480.35C727.447 480.795 716.515 480.339 705.834 478.983Z" fill="#B88855"/>
<path fill-rule="evenodd" clip-rule="evenodd" d="M794.662 638.872C796.483 638.872 798.306 638.872 800.128 638.872C799.674 652.568 800.129 666.234 801.495 679.869C802.324 679.7 802.779 679.245 802.861 678.503C805.008 674.771 808.198 672.264 812.427 670.987C817.893 670.075 823.36 670.075 828.826 670.987C833.237 673.123 836.199 676.539 837.709 681.236C838.392 700.363 838.62 719.495 838.392 738.632C833.381 738.632 828.371 738.632 823.36 738.632C823.588 720.861 823.36 703.096 822.676 685.336C819.656 681.523 815.783 680.385 811.061 681.919C808.099 684.881 805.139 687.841 802.178 690.802C801.495 706.739 801.266 722.683 801.495 738.632C796.028 738.632 790.562 738.632 785.096 738.632C785.096 705.379 785.096 672.125 785.096 638.872C788.284 638.872 791.473 638.872 794.662 638.872Z" fill="#C88A0E"/>
<path fill-rule="evenodd" clip-rule="evenodd" d="M794.662 638.872C796.601 637.573 798.878 637.117 801.495 637.506C801.048 651.419 801.503 665.084 802.862 678.503C802.78 679.245 802.324 679.7 801.495 679.869C800.13 666.234 799.675 652.568 800.128 638.872C798.307 638.872 796.484 638.872 794.662 638.872Z" fill="#71630D"/>
<path fill-rule="evenodd" clip-rule="evenodd" d="M921.753 638.872C923.119 638.872 924.486 638.872 925.853 638.872C925.399 651.206 925.855 663.505 927.219 675.77C928.049 675.6 928.504 675.145 928.586 674.403C938.664 667.231 948.913 667.231 959.334 674.403C962.403 679.506 964.681 684.972 966.166 690.802C968.745 705.847 966.467 719.967 959.334 733.166C957.675 735.283 955.625 736.876 953.184 737.949C941.464 742.325 931.215 740.275 922.436 731.799C920.504 737.238 916.632 739.515 910.82 738.632C910.82 705.379 910.82 672.125 910.82 638.872C914.465 638.872 918.108 638.872 921.753 638.872Z" fill="#C88A0E"/>
<path fill-rule="evenodd" clip-rule="evenodd" d="M921.752 638.872C923.211 637.596 925.033 637.139 927.218 637.506C926.771 650.053 927.228 662.353 928.585 674.403C928.503 675.145 928.048 675.6 927.218 675.77C925.854 663.505 925.398 651.205 925.852 638.872C924.485 638.872 923.119 638.872 921.752 638.872Z" fill="#70620D"/>
<path fill-rule="evenodd" clip-rule="evenodd" d="M514.514 642.972C507.175 642.824 499.887 643.28 492.648 644.339C496.551 642.281 500.879 641.37 505.631 641.606C508.857 641.611 511.817 642.066 514.514 642.972Z" fill="#97740D"/>
<path fill-rule="evenodd" clip-rule="evenodd" d="M514.514 642.972C522.375 643.605 528.525 647.248 532.963 653.905C536.652 660.733 538.701 668.021 539.113 675.77C535.356 675.461 531.711 675.916 528.18 677.136C526.367 668.724 522.267 661.663 515.881 655.954C499.235 652.071 489.441 658.675 486.5 675.77C484.536 691.954 486.813 707.443 493.333 722.233C499.505 727.347 506.566 728.942 514.514 727.016C518.49 725.095 521.223 722.135 522.714 718.133C524.061 712.025 524.516 705.647 524.08 699.001C519.069 699.001 514.059 699.001 509.048 699.001C509.503 695.357 509.96 691.713 510.415 688.069C519.981 688.069 529.547 688.069 539.113 688.069C539.113 704.923 539.113 721.778 539.113 738.632C535.013 738.632 530.913 738.632 526.814 738.632C526.826 736.161 526.143 733.883 524.764 731.799C521.175 735.531 516.847 738.036 511.781 739.315C485.364 742.986 471.015 731.37 468.734 704.468C465.952 687.111 468.685 670.712 476.934 655.271C480.943 649.637 486.183 645.992 492.649 644.339C499.888 643.279 507.176 642.824 514.514 642.972Z" fill="#C88A0E"/>
<path fill-rule="evenodd" clip-rule="evenodd" d="M614.274 668.937C631.534 666.364 642.695 673.197 647.755 689.435C648.437 694.883 648.665 700.349 648.439 705.834C635.228 705.834 622.019 705.834 608.808 705.834C608.179 712.652 609.546 719.03 612.908 724.966C621.251 731.031 628.767 730.12 635.456 722.233C636.126 720.466 636.354 718.643 636.139 716.767C638.91 716.546 641.643 716.774 644.339 717.45C645.607 717.98 646.519 718.892 647.072 720.183C645.511 729.941 640.045 736.318 630.673 739.315C611.395 744.126 599.324 737.065 594.459 718.133C593.548 708.567 593.548 699.001 594.459 689.435C597.672 679.164 604.276 672.331 614.274 668.937Z" fill="#C5890E"/>
<path fill-rule="evenodd" clip-rule="evenodd" d="M711.3 697.635C711.3 699.913 711.3 702.19 711.3 704.468C698.089 704.468 684.88 704.468 671.669 704.468C671.257 707.965 671.713 711.154 673.036 714.034C675.429 729.674 683.4 733.317 696.951 724.966C698.76 716.56 703.543 714.511 711.3 718.817C709.814 729.551 703.893 736.384 693.534 739.315C673.155 743.821 661.083 735.85 657.32 715.4C656.409 707.656 656.409 699.913 657.32 692.169C661.129 675.807 671.378 668.29 688.068 669.62C704.462 671.671 712.205 681.01 711.3 697.635Z" fill="#C88A0E"/>
<path fill-rule="evenodd" clip-rule="evenodd" d="M722.232 738.632C722.232 716.312 722.232 693.99 722.232 671.67C726.932 671.332 731.487 671.788 735.898 673.037C735.679 675.358 735.906 677.636 736.581 679.869C746.575 669.356 757.963 667.535 770.746 674.403C772.112 677.136 773.479 679.869 774.845 682.603C775.529 701.274 775.757 719.95 775.529 738.632C770.062 738.632 764.596 738.632 759.13 738.632C759.358 720.406 759.13 702.184 758.447 683.969C753.595 680.439 748.812 680.666 744.098 684.652C742.048 686.702 739.998 688.752 737.948 690.802C737.265 706.739 737.036 722.683 737.265 738.632C732.253 738.632 727.244 738.632 722.232 738.632Z" fill="#C5890E"/>
<path fill-rule="evenodd" clip-rule="evenodd" d="M563.711 671.67C563.489 674.44 563.717 677.173 564.394 679.87C570.004 671.531 577.52 669.481 586.942 673.72C590.202 677.663 590.202 681.762 586.942 686.019C582.285 684.135 577.275 683.678 571.91 684.653C569.017 687.018 566.967 689.979 565.76 693.535C565.077 708.561 564.849 723.593 565.077 738.632C560.066 738.632 555.056 738.632 550.045 738.632C550.045 716.312 550.045 693.99 550.045 671.67C554.6 671.67 559.156 671.67 563.711 671.67Z" fill="#CA8B0E"/>
<path fill-rule="evenodd" clip-rule="evenodd" d="M847.959 671.67C852.97 671.67 857.98 671.67 862.991 671.67C862.541 688.767 862.998 705.622 864.358 722.233C864.798 728.35 867.987 730.4 873.924 728.383C878.902 725.916 882.09 722.044 883.49 716.767C884.849 701.979 885.304 686.947 884.856 671.67C889.867 671.67 894.877 671.67 899.888 671.67C899.888 693.99 899.888 716.312 899.888 738.632C894.877 738.632 889.867 738.632 884.856 738.632C885.077 735.862 884.849 733.129 884.173 730.433C877.738 739.001 869.31 741.961 858.891 739.315C853.481 736.63 850.065 732.303 848.642 726.333C847.959 708.118 847.73 689.896 847.959 671.67Z" fill="#CA8B0E"/>
<path fill-rule="evenodd" clip-rule="evenodd" d="M847.957 671.67C853.147 670.326 858.614 669.87 864.356 670.303C864.356 687.614 864.356 704.923 864.356 722.233C862.996 705.622 862.54 688.767 862.989 671.67C857.978 671.67 852.968 671.67 847.957 671.67Z" fill="#655D0E"/>
<path fill-rule="evenodd" clip-rule="evenodd" d="M899.887 738.632C899.887 716.312 899.887 693.99 899.887 671.67C894.876 671.67 889.866 671.67 884.855 671.67C885.303 686.947 884.848 701.979 883.488 716.767C883.488 701.28 883.488 685.791 883.488 670.303C889.41 670.303 895.332 670.303 901.254 670.303C901.705 693.319 901.25 716.095 899.887 738.632Z" fill="#5F5B0D"/>
<path fill-rule="evenodd" clip-rule="evenodd" d="M563.71 671.67C559.156 671.67 554.599 671.67 550.045 671.67C550.045 693.99 550.045 716.312 550.045 738.632C548.682 716.094 548.227 693.319 548.678 670.303C553.968 669.873 558.979 670.328 563.71 671.67Z" fill="#675F0D"/>
<path fill-rule="evenodd" clip-rule="evenodd" d="M735.9 673.037C731.489 671.788 726.934 671.333 722.234 671.67C722.234 693.99 722.234 716.312 722.234 738.632C720.872 716.095 720.417 693.319 720.868 670.304C726.537 669.511 731.549 670.421 735.9 673.037Z" fill="#9B770D"/>
<path fill-rule="evenodd" clip-rule="evenodd" d="M615.641 679.869C628.557 677.753 634.478 683.219 633.407 696.268C625.207 696.268 617.008 696.268 608.809 696.268C608.84 689.833 611.118 684.367 615.641 679.869Z" fill="#0D4E63"/>
<path fill-rule="evenodd" clip-rule="evenodd" d="M696.269 696.268C687.935 697.111 680.191 696.2 673.037 693.535C674.165 682.612 680.086 678.284 690.803 680.553C695.539 684.707 697.362 689.946 696.269 696.268Z" fill="#0D4E63"/>
<path fill-rule="evenodd" clip-rule="evenodd" d="M934.053 679.869C941.315 678.831 946.553 681.564 949.768 688.069C950.68 699.001 950.68 709.934 949.768 720.866C944.318 729.839 937.485 731.206 929.27 724.966C924.715 711.755 924.715 698.546 929.27 685.336C931.15 683.689 932.743 681.867 934.053 679.869Z" fill="#0D4E63"/>
<path fill-rule="evenodd" clip-rule="evenodd" d="M510.414 688.069C520.182 686.713 530.203 686.258 540.479 686.702C540.928 704.255 540.472 721.565 539.112 738.632C539.112 721.778 539.112 704.923 539.112 688.069C529.546 688.069 519.98 688.069 510.414 688.069Z" fill="#79670D"/>
<path fill-rule="evenodd" clip-rule="evenodd" d="M673.036 693.535C680.19 696.2 687.934 697.111 696.268 696.268C688.328 697.621 680.128 698.076 671.669 697.635C671.345 695.871 671.801 694.504 673.036 693.535Z" fill="#0D4E63"/>
<path fill-rule="evenodd" clip-rule="evenodd" d="M509.049 699.001C514.06 699.001 519.07 699.001 524.081 699.001C524.517 705.647 524.062 712.025 522.715 718.133C522.715 712.212 522.715 706.289 522.715 700.368C517.874 700.796 513.319 700.339 509.049 699.001Z" fill="#4C520D"/>
<path fill-rule="evenodd" clip-rule="evenodd" d="M711.301 697.635C712.614 700.047 713.071 702.78 712.668 705.834C699.457 705.834 686.248 705.834 673.037 705.834C673.037 708.567 673.037 711.3 673.037 714.034C671.714 711.154 671.258 707.965 671.67 704.468C684.881 704.468 698.09 704.468 711.301 704.468C711.301 702.19 711.301 699.913 711.301 697.635Z" fill="#6D600D"/>
</g>
<defs>
<filter id="filter0_d_61_5955" x="-4.68359" y="-0.68335" width="1447" height="1078.03" filterUnits="userSpaceOnUse" color-interpolation-filters="sRGB">
<feFlood flood-opacity="0" result="BackgroundImageFix"/>
<feColorMatrix in="SourceAlpha" type="matrix" values="0 0 0 0 0 0 0 0 0 0 0 0 0 0 0 0 0 0 127 0" result="hardAlpha"/>
<feOffset dy="4"/>
<feGaussianBlur stdDeviation="2"/>
<feComposite in2="hardAlpha" operator="out"/>
<feColorMatrix type="matrix" values="0 0 0 0 0 0 0 0 0 0 0 0 0 0 0 0 0 0 0.25 0"/>
<feBlend mode="normal" in2="BackgroundImageFix" result="effect1_dropShadow_61_5955"/>
<feBlend mode="normal" in="SourceGraphic" in2="effect1_dropShadow_61_5955" result="shape"/>
</filter>
<clipPath id="clip0_61_5955">
<rect width="1439" height="1070.03" fill="white"/>
</clipPath>
</defs>
</svg>
